<svg xmlns="http://www.w3.org/2000/svg" xmlns:xlink="http://www.w3.org/1999/xlink" width="500" zoomAndPan="magnify" viewBox="0 0 375 374.999991" height="500" preserveAspectRatio="xMidYMid meet" version="1.0"><defs><g/><linearGradient x1="0" gradientTransform="matrix(0.75, 0, 0, 0.75, 0.0000045, 0)" y1="250" x2="499.999979" gradientUnits="userSpaceOnUse" y2="250" id="3878a46f96"><stop stop-opacity="1" stop-color="rgb(54.899597%, 32.199097%, 100%)" offset="0"/><stop stop-opacity="1" stop-color="rgb(54.826355%, 32.417297%, 99.960327%)" offset="0.00390625"/><stop stop-opacity="1" stop-color="rgb(54.753113%, 32.637024%, 99.92218%)" offset="0.0078125"/><stop stop-opacity="1" stop-color="rgb(54.678345%, 32.855225%, 99.884033%)" offset="0.0117187"/><stop stop-opacity="1" stop-color="rgb(54.605103%, 33.074951%, 99.845886%)" offset="0.015625"/><stop stop-opacity="1" stop-color="rgb(54.53186%, 33.293152%, 99.807739%)" offset="0.0195312"/><stop stop-opacity="1" stop-color="rgb(54.458618%, 33.511353%, 99.769592%)" offset="0.0234375"/><stop stop-opacity="1" stop-color="rgb(54.385376%, 33.729553%, 99.731445%)" offset="0.0273438"/><stop stop-opacity="1" stop-color="rgb(54.312134%, 33.94928%, 99.693298%)" offset="0.03125"/><stop stop-opacity="1" stop-color="rgb(54.237366%, 34.16748%, 99.655151%)" offset="0.0351562"/><stop stop-opacity="1" stop-color="rgb(54.164124%, 34.387207%, 99.617004%)" offset="0.0390625"/><stop stop-opacity="1" stop-color="rgb(54.090881%, 34.605408%, 99.577332%)" offset="0.0429687"/><stop stop-opacity="1" stop-color="rgb(54.017639%, 34.823608%, 99.539185%)" offset="0.046875"/><stop stop-opacity="1" stop-color="rgb(53.944397%, 35.041809%, 99.501038%)" offset="0.0507812"/><stop stop-opacity="1" stop-color="rgb(53.871155%, 35.261536%, 99.462891%)" offset="0.0546875"/><stop stop-opacity="1" stop-color="rgb(53.797913%, 35.479736%, 99.424744%)" offset="0.0585938"/><stop stop-opacity="1" stop-color="rgb(53.72467%, 35.699463%, 99.386597%)" offset="0.0625"/><stop stop-opacity="1" stop-color="rgb(53.649902%, 35.917664%, 99.34845%)" offset="0.0664062"/><stop stop-opacity="1" stop-color="rgb(53.57666%, 36.13739%, 99.310303%)" offset="0.0703125"/><stop stop-opacity="1" stop-color="rgb(53.503418%, 36.355591%, 99.272156%)" offset="0.0742187"/><stop stop-opacity="1" stop-color="rgb(53.430176%, 36.573792%, 99.234009%)" offset="0.078125"/><stop stop-opacity="1" stop-color="rgb(53.356934%, 36.791992%, 99.195862%)" offset="0.0820312"/><stop stop-opacity="1" stop-color="rgb(53.283691%, 37.011719%, 99.157715%)" offset="0.0859375"/><stop stop-opacity="1" stop-color="rgb(53.210449%, 37.229919%, 99.118042%)" offset="0.0898437"/><stop stop-opacity="1" stop-color="rgb(53.137207%, 37.449646%, 99.079895%)" offset="0.09375"/><stop stop-opacity="1" stop-color="rgb(53.062439%, 37.667847%, 99.041748%)" offset="0.0976562"/><stop stop-opacity="1" stop-color="rgb(52.989197%, 37.886047%, 99.003601%)" offset="0.101562"/><stop stop-opacity="1" stop-color="rgb(52.915955%, 38.104248%, 98.965454%)" offset="0.105469"/><stop stop-opacity="1" stop-color="rgb(52.842712%, 38.323975%, 98.927307%)" offset="0.109375"/><stop stop-opacity="1" stop-color="rgb(52.76947%, 38.542175%, 98.88916%)" offset="0.113281"/><stop stop-opacity="1" stop-color="rgb(52.696228%, 38.761902%, 98.851013%)" offset="0.117188"/><stop stop-opacity="1" stop-color="rgb(52.622986%, 38.980103%, 98.812866%)" offset="0.121094"/><stop stop-opacity="1" stop-color="rgb(52.549744%, 39.199829%, 98.774719%)" offset="0.125"/><stop stop-opacity="1" stop-color="rgb(52.474976%, 39.41803%, 98.736572%)" offset="0.128906"/><stop stop-opacity="1" stop-color="rgb(52.401733%, 39.63623%, 98.698425%)" offset="0.132812"/><stop stop-opacity="1" stop-color="rgb(52.328491%, 39.854431%, 98.658752%)" offset="0.136719"/><stop stop-opacity="1" stop-color="rgb(52.255249%, 40.074158%, 98.620605%)" offset="0.140625"/><stop stop-opacity="1" stop-color="rgb(52.182007%, 40.292358%, 98.582458%)" offset="0.144531"/><stop stop-opacity="1" stop-color="rgb(52.108765%, 40.512085%, 98.544312%)" offset="0.148437"/><stop stop-opacity="1" stop-color="rgb(52.035522%, 40.730286%, 98.506165%)" offset="0.152344"/><stop stop-opacity="1" stop-color="rgb(51.96228%, 40.948486%, 98.468018%)" offset="0.15625"/><stop stop-opacity="1" stop-color="rgb(51.887512%, 41.166687%, 98.429871%)" offset="0.160156"/><stop stop-opacity="1" stop-color="rgb(51.81427%, 41.386414%, 98.391724%)" offset="0.164062"/><stop stop-opacity="1" stop-color="rgb(51.741028%, 41.604614%, 98.353577%)" offset="0.167969"/><stop stop-opacity="1" stop-color="rgb(51.667786%, 41.824341%, 98.31543%)" offset="0.171875"/><stop stop-opacity="1" stop-color="rgb(51.594543%, 42.042542%, 98.275757%)" offset="0.175781"/><stop stop-opacity="1" stop-color="rgb(51.521301%, 42.262268%, 98.23761%)" offset="0.179687"/><stop stop-opacity="1" stop-color="rgb(51.448059%, 42.480469%, 98.199463%)" offset="0.183594"/><stop stop-opacity="1" stop-color="rgb(51.374817%, 42.698669%, 98.161316%)" offset="0.1875"/><stop stop-opacity="1" stop-color="rgb(51.300049%, 42.91687%, 98.123169%)" offset="0.191406"/><stop stop-opacity="1" stop-color="rgb(51.226807%, 43.136597%, 98.085022%)" offset="0.195312"/><stop stop-opacity="1" stop-color="rgb(51.153564%, 43.354797%, 98.046875%)" offset="0.199219"/><stop stop-opacity="1" stop-color="rgb(51.080322%, 43.574524%, 98.008728%)" offset="0.203125"/><stop stop-opacity="1" stop-color="rgb(51.00708%, 43.792725%, 97.970581%)" offset="0.207031"/><stop stop-opacity="1" stop-color="rgb(50.933838%, 44.012451%, 97.932434%)" offset="0.210938"/><stop stop-opacity="1" stop-color="rgb(50.860596%, 44.230652%, 97.894287%)" offset="0.214844"/><stop stop-opacity="1" stop-color="rgb(50.787354%, 44.448853%, 97.85614%)" offset="0.21875"/><stop stop-opacity="1" stop-color="rgb(50.712585%, 44.667053%, 97.816467%)" offset="0.222656"/><stop stop-opacity="1" stop-color="rgb(50.639343%, 44.88678%, 97.77832%)" offset="0.226562"/><stop stop-opacity="1" stop-color="rgb(50.566101%, 45.10498%, 97.740173%)" offset="0.230469"/><stop stop-opacity="1" stop-color="rgb(50.492859%, 45.324707%, 97.702026%)" offset="0.234375"/><stop stop-opacity="1" stop-color="rgb(50.419617%, 45.542908%, 97.663879%)" offset="0.238281"/><stop stop-opacity="1" stop-color="rgb(50.346375%, 45.761108%, 97.625732%)" offset="0.242188"/><stop stop-opacity="1" stop-color="rgb(50.273132%, 45.979309%, 97.587585%)" offset="0.246094"/><stop stop-opacity="1" stop-color="rgb(50.19989%, 46.199036%, 97.549438%)" offset="0.25"/><stop stop-opacity="1" stop-color="rgb(50.125122%, 46.417236%, 97.511292%)" offset="0.253906"/><stop stop-opacity="1" stop-color="rgb(50.05188%, 46.636963%, 97.473145%)" offset="0.257812"/><stop stop-opacity="1" stop-color="rgb(49.978638%, 46.855164%, 97.434998%)" offset="0.261719"/><stop stop-opacity="1" stop-color="rgb(49.905396%, 47.07489%, 97.396851%)" offset="0.265625"/><stop stop-opacity="1" stop-color="rgb(49.832153%, 47.293091%, 97.357178%)" offset="0.269531"/><stop stop-opacity="1" stop-color="rgb(49.758911%, 47.511292%, 97.319031%)" offset="0.273437"/><stop stop-opacity="1" stop-color="rgb(49.685669%, 47.729492%, 97.280884%)" offset="0.277344"/><stop stop-opacity="1" stop-color="rgb(49.612427%, 47.949219%, 97.242737%)" offset="0.28125"/><stop stop-opacity="1" stop-color="rgb(49.537659%, 48.167419%, 97.20459%)" offset="0.285156"/><stop stop-opacity="1" stop-color="rgb(49.464417%, 48.387146%, 97.166443%)" offset="0.289062"/><stop stop-opacity="1" stop-color="rgb(49.391174%, 48.605347%, 97.128296%)" offset="0.292969"/><stop stop-opacity="1" stop-color="rgb(49.317932%, 48.823547%, 97.090149%)" offset="0.296875"/><stop stop-opacity="1" stop-color="rgb(49.24469%, 49.041748%, 97.052002%)" offset="0.300781"/><stop stop-opacity="1" stop-color="rgb(49.171448%, 49.261475%, 97.013855%)" offset="0.304687"/><stop stop-opacity="1" stop-color="rgb(49.098206%, 49.479675%, 96.974182%)" offset="0.308594"/><stop stop-opacity="1" stop-color="rgb(49.024963%, 49.699402%, 96.936035%)" offset="0.3125"/><stop stop-opacity="1" stop-color="rgb(48.950195%, 49.917603%, 96.897888%)" offset="0.316406"/><stop stop-opacity="1" stop-color="rgb(48.876953%, 50.137329%, 96.859741%)" offset="0.320312"/><stop stop-opacity="1" stop-color="rgb(48.803711%, 50.35553%, 96.821594%)" offset="0.324219"/><stop stop-opacity="1" stop-color="rgb(48.730469%, 50.57373%, 96.783447%)" offset="0.328125"/><stop stop-opacity="1" stop-color="rgb(48.657227%, 50.791931%, 96.7453%)" offset="0.332031"/><stop stop-opacity="1" stop-color="rgb(48.583984%, 51.011658%, 96.707153%)" offset="0.335937"/><stop stop-opacity="1" stop-color="rgb(48.510742%, 51.229858%, 96.669006%)" offset="0.339844"/><stop stop-opacity="1" stop-color="rgb(48.4375%, 51.449585%, 96.630859%)" offset="0.34375"/><stop stop-opacity="1" stop-color="rgb(48.362732%, 51.667786%, 96.592712%)" offset="0.347656"/><stop stop-opacity="1" stop-color="rgb(48.28949%, 51.885986%, 96.554565%)" offset="0.351562"/><stop stop-opacity="1" stop-color="rgb(48.216248%, 52.104187%, 96.514893%)" offset="0.355469"/><stop stop-opacity="1" stop-color="rgb(48.143005%, 52.323914%, 96.476746%)" offset="0.359375"/><stop stop-opacity="1" stop-color="rgb(48.069763%, 52.542114%, 96.438599%)" offset="0.363281"/><stop stop-opacity="1" stop-color="rgb(47.996521%, 52.761841%, 96.400452%)" offset="0.367187"/><stop stop-opacity="1" stop-color="rgb(47.921753%, 52.980042%, 96.362305%)" offset="0.371094"/><stop stop-opacity="1" stop-color="rgb(47.848511%, 53.199768%, 96.324158%)" offset="0.375"/><stop stop-opacity="1" stop-color="rgb(47.775269%, 53.417969%, 96.286011%)" offset="0.378906"/><stop stop-opacity="1" stop-color="rgb(47.702026%, 53.636169%, 96.247864%)" offset="0.382812"/><stop stop-opacity="1" stop-color="rgb(47.628784%, 53.85437%, 96.209717%)" offset="0.386719"/><stop stop-opacity="1" stop-color="rgb(47.555542%, 54.074097%, 96.17157%)" offset="0.390625"/><stop stop-opacity="1" stop-color="rgb(47.4823%, 54.292297%, 96.133423%)" offset="0.394531"/><stop stop-opacity="1" stop-color="rgb(47.409058%, 54.512024%, 96.095276%)" offset="0.398438"/><stop stop-opacity="1" stop-color="rgb(47.33429%, 54.730225%, 96.055603%)" offset="0.402344"/><stop stop-opacity="1" stop-color="rgb(47.261047%, 54.949951%, 96.017456%)" offset="0.40625"/><stop stop-opacity="1" stop-color="rgb(47.187805%, 55.168152%, 95.979309%)" offset="0.410156"/><stop stop-opacity="1" stop-color="rgb(47.114563%, 55.386353%, 95.941162%)" offset="0.414062"/><stop stop-opacity="1" stop-color="rgb(47.041321%, 55.604553%, 95.903015%)" offset="0.417969"/><stop stop-opacity="1" stop-color="rgb(46.968079%, 55.82428%, 95.864868%)" offset="0.421875"/><stop stop-opacity="1" stop-color="rgb(46.894836%, 56.04248%, 95.826721%)" offset="0.425781"/><stop stop-opacity="1" stop-color="rgb(46.821594%, 56.262207%, 95.788574%)" offset="0.429688"/><stop stop-opacity="1" stop-color="rgb(46.746826%, 56.480408%, 95.750427%)" offset="0.433594"/><stop stop-opacity="1" stop-color="rgb(46.673584%, 56.698608%, 95.71228%)" offset="0.4375"/><stop stop-opacity="1" stop-color="rgb(46.600342%, 56.916809%, 95.672607%)" offset="0.441406"/><stop stop-opacity="1" stop-color="rgb(46.5271%, 57.136536%, 95.63446%)" offset="0.445312"/><stop stop-opacity="1" stop-color="rgb(46.453857%, 57.354736%, 95.596313%)" offset="0.449219"/><stop stop-opacity="1" stop-color="rgb(46.380615%, 57.574463%, 95.558167%)" offset="0.453125"/><stop stop-opacity="1" stop-color="rgb(46.307373%, 57.792664%, 95.52002%)" offset="0.457031"/><stop stop-opacity="1" stop-color="rgb(46.234131%, 58.01239%, 95.481873%)" offset="0.460938"/><stop stop-opacity="1" stop-color="rgb(46.159363%, 58.230591%, 95.443726%)" offset="0.464844"/><stop stop-opacity="1" stop-color="rgb(46.086121%, 58.448792%, 95.405579%)" offset="0.46875"/><stop stop-opacity="1" stop-color="rgb(46.012878%, 58.666992%, 95.367432%)" offset="0.472656"/><stop stop-opacity="1" stop-color="rgb(45.939636%, 58.886719%, 95.329285%)" offset="0.476562"/><stop stop-opacity="1" stop-color="rgb(45.866394%, 59.104919%, 95.291138%)" offset="0.480469"/><stop stop-opacity="1" stop-color="rgb(45.793152%, 59.324646%, 95.252991%)" offset="0.484375"/><stop stop-opacity="1" stop-color="rgb(45.71991%, 59.542847%, 95.213318%)" offset="0.488281"/><stop stop-opacity="1" stop-color="rgb(45.646667%, 59.761047%, 95.175171%)" offset="0.492188"/><stop stop-opacity="1" stop-color="rgb(45.571899%, 59.979248%, 95.137024%)" offset="0.496094"/><stop stop-opacity="1" stop-color="rgb(45.498657%, 60.198975%, 95.098877%)" offset="0.5"/><stop stop-opacity="1" stop-color="rgb(45.425415%, 60.417175%, 95.06073%)" offset="0.503906"/><stop stop-opacity="1" stop-color="rgb(45.352173%, 60.636902%, 95.022583%)" offset="0.507812"/><stop stop-opacity="1" stop-color="rgb(45.278931%, 60.855103%, 94.984436%)" offset="0.511719"/><stop stop-opacity="1" stop-color="rgb(45.205688%, 61.074829%, 94.946289%)" offset="0.515625"/><stop stop-opacity="1" stop-color="rgb(45.132446%, 61.29303%, 94.908142%)" offset="0.519531"/><stop stop-opacity="1" stop-color="rgb(45.059204%, 61.51123%, 94.869995%)" offset="0.523437"/><stop stop-opacity="1" stop-color="rgb(44.984436%, 61.729431%, 94.831848%)" offset="0.527344"/><stop stop-opacity="1" stop-color="rgb(44.911194%, 61.949158%, 94.793701%)" offset="0.53125"/><stop stop-opacity="1" stop-color="rgb(44.837952%, 62.167358%, 94.754028%)" offset="0.535156"/><stop stop-opacity="1" stop-color="rgb(44.764709%, 62.387085%, 94.715881%)" offset="0.539062"/><stop stop-opacity="1" stop-color="rgb(44.691467%, 62.605286%, 94.677734%)" offset="0.542969"/><stop stop-opacity="1" stop-color="rgb(44.618225%, 62.823486%, 94.639587%)" offset="0.546875"/><stop stop-opacity="1" stop-color="rgb(44.544983%, 63.041687%, 94.60144%)" offset="0.550781"/><stop stop-opacity="1" stop-color="rgb(44.471741%, 63.261414%, 94.563293%)" offset="0.554687"/><stop stop-opacity="1" stop-color="rgb(44.396973%, 63.479614%, 94.525146%)" offset="0.558594"/><stop stop-opacity="1" stop-color="rgb(44.32373%, 63.699341%, 94.487%)" offset="0.5625"/><stop stop-opacity="1" stop-color="rgb(44.250488%, 63.917542%, 94.448853%)" offset="0.566406"/><stop stop-opacity="1" stop-color="rgb(44.177246%, 64.137268%, 94.410706%)" offset="0.570312"/><stop stop-opacity="1" stop-color="rgb(44.104004%, 64.355469%, 94.371033%)" offset="0.574219"/><stop stop-opacity="1" stop-color="rgb(44.030762%, 64.573669%, 94.332886%)" offset="0.578125"/><stop stop-opacity="1" stop-color="rgb(43.95752%, 64.79187%, 94.294739%)" offset="0.582031"/><stop stop-opacity="1" stop-color="rgb(43.884277%, 65.011597%, 94.256592%)" offset="0.585937"/><stop stop-opacity="1" stop-color="rgb(43.809509%, 65.229797%, 94.218445%)" offset="0.589844"/><stop stop-opacity="1" stop-color="rgb(43.736267%, 65.449524%, 94.180298%)" offset="0.59375"/><stop stop-opacity="1" stop-color="rgb(43.663025%, 65.667725%, 94.142151%)" offset="0.597656"/><stop stop-opacity="1" stop-color="rgb(43.589783%, 65.887451%, 94.104004%)" offset="0.601562"/><stop stop-opacity="1" stop-color="rgb(43.516541%, 66.105652%, 94.065857%)" offset="0.605469"/><stop stop-opacity="1" stop-color="rgb(43.443298%, 66.323853%, 94.02771%)" offset="0.609375"/><stop stop-opacity="1" stop-color="rgb(43.370056%, 66.542053%, 93.989563%)" offset="0.613281"/><stop stop-opacity="1" stop-color="rgb(43.296814%, 66.76178%, 93.951416%)" offset="0.617187"/><stop stop-opacity="1" stop-color="rgb(43.222046%, 66.97998%, 93.911743%)" offset="0.621094"/><stop stop-opacity="1" stop-color="rgb(43.148804%, 67.199707%, 93.873596%)" offset="0.625"/><stop stop-opacity="1" stop-color="rgb(43.075562%, 67.417908%, 93.835449%)" offset="0.628906"/><stop stop-opacity="1" stop-color="rgb(43.002319%, 67.636108%, 93.797302%)" offset="0.632812"/><stop stop-opacity="1" stop-color="rgb(42.929077%, 67.854309%, 93.759155%)" offset="0.636719"/><stop stop-opacity="1" stop-color="rgb(42.855835%, 68.074036%, 93.721008%)" offset="0.640625"/><stop stop-opacity="1" stop-color="rgb(42.782593%, 68.292236%, 93.682861%)" offset="0.644531"/><stop stop-opacity="1" stop-color="rgb(42.709351%, 68.511963%, 93.644714%)" offset="0.648437"/><stop stop-opacity="1" stop-color="rgb(42.634583%, 68.730164%, 93.606567%)" offset="0.652344"/><stop stop-opacity="1" stop-color="rgb(42.56134%, 68.94989%, 93.56842%)" offset="0.65625"/><stop stop-opacity="1" stop-color="rgb(42.488098%, 69.168091%, 93.530273%)" offset="0.660156"/><stop stop-opacity="1" stop-color="rgb(42.414856%, 69.386292%, 93.492126%)" offset="0.664062"/><stop stop-opacity="1" stop-color="rgb(42.341614%, 69.604492%, 93.452454%)" offset="0.667969"/><stop stop-opacity="1" stop-color="rgb(42.268372%, 69.824219%, 93.414307%)" offset="0.671875"/><stop stop-opacity="1" stop-color="rgb(42.193604%, 70.042419%, 93.37616%)" offset="0.675781"/><stop stop-opacity="1" stop-color="rgb(42.120361%, 70.262146%, 93.338013%)" offset="0.679687"/><stop stop-opacity="1" stop-color="rgb(42.047119%, 70.480347%, 93.299866%)" offset="0.683594"/><stop stop-opacity="1" stop-color="rgb(41.973877%, 70.698547%, 93.261719%)" offset="0.6875"/><stop stop-opacity="1" stop-color="rgb(41.900635%, 70.916748%, 93.223572%)" offset="0.691406"/><stop stop-opacity="1" stop-color="rgb(41.827393%, 71.136475%, 93.185425%)" offset="0.695312"/><stop stop-opacity="1" stop-color="rgb(41.75415%, 71.354675%, 93.147278%)" offset="0.699219"/><stop stop-opacity="1" stop-color="rgb(41.680908%, 71.574402%, 93.109131%)" offset="0.703125"/><stop stop-opacity="1" stop-color="rgb(41.60614%, 71.792603%, 93.069458%)" offset="0.707031"/><stop stop-opacity="1" stop-color="rgb(41.532898%, 72.012329%, 93.031311%)" offset="0.710937"/><stop stop-opacity="1" stop-color="rgb(41.459656%, 72.23053%, 92.993164%)" offset="0.714844"/><stop stop-opacity="1" stop-color="rgb(41.386414%, 72.44873%, 92.955017%)" offset="0.71875"/><stop stop-opacity="1" stop-color="rgb(41.313171%, 72.666931%, 92.91687%)" offset="0.722656"/><stop stop-opacity="1" stop-color="rgb(41.239929%, 72.886658%, 92.878723%)" offset="0.726562"/><stop stop-opacity="1" stop-color="rgb(41.166687%, 73.104858%, 92.840576%)" offset="0.730469"/><stop stop-opacity="1" stop-color="rgb(41.093445%, 73.324585%, 92.802429%)" offset="0.734375"/><stop stop-opacity="1" stop-color="rgb(41.018677%, 73.542786%, 92.764282%)" offset="0.738281"/><stop stop-opacity="1" stop-color="rgb(40.945435%, 73.760986%, 92.726135%)" offset="0.742187"/><stop stop-opacity="1" stop-color="rgb(40.872192%, 73.979187%, 92.687988%)" offset="0.746094"/><stop stop-opacity="1" stop-color="rgb(40.79895%, 74.198914%, 92.649841%)" offset="0.75"/><stop stop-opacity="1" stop-color="rgb(40.725708%, 74.417114%, 92.610168%)" offset="0.753906"/><stop stop-opacity="1" stop-color="rgb(40.652466%, 74.636841%, 92.572021%)" offset="0.757812"/><stop stop-opacity="1" stop-color="rgb(40.579224%, 74.855042%, 92.533875%)" offset="0.761719"/><stop stop-opacity="1" stop-color="rgb(40.505981%, 75.074768%, 92.495728%)" offset="0.765625"/><stop stop-opacity="1" stop-color="rgb(40.431213%, 75.292969%, 92.457581%)" offset="0.769531"/><stop stop-opacity="1" stop-color="rgb(40.357971%, 75.511169%, 92.419434%)" offset="0.773438"/><stop stop-opacity="1" stop-color="rgb(40.284729%, 75.72937%, 92.381287%)" offset="0.777344"/><stop stop-opacity="1" stop-color="rgb(40.211487%, 75.949097%, 92.34314%)" offset="0.78125"/><stop stop-opacity="1" stop-color="rgb(40.138245%, 76.167297%, 92.304993%)" offset="0.785156"/><stop stop-opacity="1" stop-color="rgb(40.065002%, 76.387024%, 92.266846%)" offset="0.789062"/><stop stop-opacity="1" stop-color="rgb(39.99176%, 76.605225%, 92.228699%)" offset="0.792969"/><stop stop-opacity="1" stop-color="rgb(39.918518%, 76.824951%, 92.190552%)" offset="0.796875"/><stop stop-opacity="1" stop-color="rgb(39.84375%, 77.043152%, 92.150879%)" offset="0.800781"/><stop stop-opacity="1" stop-color="rgb(39.770508%, 77.261353%, 92.112732%)" offset="0.804688"/><stop stop-opacity="1" stop-color="rgb(39.697266%, 77.479553%, 92.074585%)" offset="0.808594"/><stop stop-opacity="1" stop-color="rgb(39.624023%, 77.69928%, 92.036438%)" offset="0.8125"/><stop stop-opacity="1" stop-color="rgb(39.550781%, 77.91748%, 91.998291%)" offset="0.816406"/><stop stop-opacity="1" stop-color="rgb(39.477539%, 78.137207%, 91.960144%)" offset="0.820312"/><stop stop-opacity="1" stop-color="rgb(39.404297%, 78.355408%, 91.921997%)" offset="0.824219"/><stop stop-opacity="1" stop-color="rgb(39.331055%, 78.573608%, 91.88385%)" offset="0.828125"/><stop stop-opacity="1" stop-color="rgb(39.256287%, 78.791809%, 91.845703%)" offset="0.832031"/><stop stop-opacity="1" stop-color="rgb(39.183044%, 79.011536%, 91.807556%)" offset="0.835938"/><stop stop-opacity="1" stop-color="rgb(39.109802%, 79.229736%, 91.767883%)" offset="0.839844"/><stop stop-opacity="1" stop-color="rgb(39.03656%, 79.449463%, 91.729736%)" offset="0.84375"/><stop stop-opacity="1" stop-color="rgb(38.963318%, 79.667664%, 91.691589%)" offset="0.847656"/><stop stop-opacity="1" stop-color="rgb(38.890076%, 79.88739%, 91.653442%)" offset="0.851562"/><stop stop-opacity="1" stop-color="rgb(38.816833%, 80.105591%, 91.615295%)" offset="0.855469"/><stop stop-opacity="1" stop-color="rgb(38.743591%, 80.323792%, 91.577148%)" offset="0.859375"/><stop stop-opacity="1" stop-color="rgb(38.668823%, 80.541992%, 91.539001%)" offset="0.863281"/><stop stop-opacity="1" stop-color="rgb(38.595581%, 80.761719%, 91.500854%)" offset="0.867188"/><stop stop-opacity="1" stop-color="rgb(38.522339%, 80.979919%, 91.462708%)" offset="0.871094"/><stop stop-opacity="1" stop-color="rgb(38.449097%, 81.199646%, 91.424561%)" offset="0.875"/><stop stop-opacity="1" stop-color="rgb(38.375854%, 81.417847%, 91.386414%)" offset="0.878906"/><stop stop-opacity="1" stop-color="rgb(38.302612%, 81.636047%, 91.348267%)" offset="0.882812"/><stop stop-opacity="1" stop-color="rgb(38.22937%, 81.854248%, 91.308594%)" offset="0.886719"/><stop stop-opacity="1" stop-color="rgb(38.156128%, 82.073975%, 91.270447%)" offset="0.890625"/><stop stop-opacity="1" stop-color="rgb(38.08136%, 82.292175%, 91.2323%)" offset="0.894531"/><stop stop-opacity="1" stop-color="rgb(38.008118%, 82.511902%, 91.194153%)" offset="0.898438"/><stop stop-opacity="1" stop-color="rgb(37.934875%, 82.730103%, 91.156006%)" offset="0.902344"/><stop stop-opacity="1" stop-color="rgb(37.861633%, 82.949829%, 91.117859%)" offset="0.90625"/><stop stop-opacity="1" stop-color="rgb(37.788391%, 83.16803%, 91.079712%)" offset="0.910156"/><stop stop-opacity="1" stop-color="rgb(37.715149%, 83.38623%, 91.041565%)" offset="0.914062"/><stop stop-opacity="1" stop-color="rgb(37.641907%, 83.604431%, 91.003418%)" offset="0.917969"/><stop stop-opacity="1" stop-color="rgb(37.568665%, 83.824158%, 90.965271%)" offset="0.921875"/><stop stop-opacity="1" stop-color="rgb(37.493896%, 84.042358%, 90.927124%)" offset="0.925781"/><stop stop-opacity="1" stop-color="rgb(37.420654%, 84.262085%, 90.888977%)" offset="0.929688"/><stop stop-opacity="1" stop-color="rgb(37.347412%, 84.480286%, 90.849304%)" offset="0.933594"/><stop stop-opacity="1" stop-color="rgb(37.27417%, 84.698486%, 90.811157%)" offset="0.9375"/><stop stop-opacity="1" stop-color="rgb(37.200928%, 84.916687%, 90.77301%)" offset="0.941406"/><stop stop-opacity="1" stop-color="rgb(37.127686%, 85.136414%, 90.734863%)" offset="0.945312"/><stop stop-opacity="1" stop-color="rgb(37.054443%, 85.354614%, 90.696716%)" offset="0.949219"/><stop stop-opacity="1" stop-color="rgb(36.981201%, 85.574341%, 90.658569%)" offset="0.953125"/><stop stop-opacity="1" stop-color="rgb(36.906433%, 85.792542%, 90.620422%)" offset="0.957031"/><stop stop-opacity="1" stop-color="rgb(36.833191%, 86.012268%, 90.582275%)" offset="0.960938"/><stop stop-opacity="1" stop-color="rgb(36.759949%, 86.230469%, 90.544128%)" offset="0.964844"/><stop stop-opacity="1" stop-color="rgb(36.686707%, 86.448669%, 90.505981%)" offset="0.96875"/><stop stop-opacity="1" stop-color="rgb(36.613464%, 86.66687%, 90.467834%)" offset="0.972656"/><stop stop-opacity="1" stop-color="rgb(36.540222%, 86.886597%, 90.429688%)" offset="0.976562"/><stop stop-opacity="1" stop-color="rgb(36.46698%, 87.104797%, 90.390015%)" offset="0.980469"/><stop stop-opacity="1" stop-color="rgb(36.393738%, 87.324524%, 90.351868%)" offset="0.984375"/><stop stop-opacity="1" stop-color="rgb(36.31897%, 87.542725%, 90.313721%)" offset="0.988281"/><stop stop-opacity="1" stop-color="rgb(36.245728%, 87.762451%, 90.275574%)" offset="0.992188"/><stop stop-opacity="1" stop-color="rgb(36.172485%, 87.980652%, 90.237427%)" offset="0.996094"/><stop stop-opacity="1" stop-color="rgb(36.099243%, 88.198853%, 90.19928%)" offset="1"/></linearGradient><clipPath id="14652b66ac"><path d="M 68 199 L 320 199 L 320 245 L 68 245 Z M 68 199 " clip-rule="nonzero"/></clipPath><clipPath id="81a18e68b3"><path d="M 67.511719 213.207031 L 318.972656 198.117188 L 320.898438 230.191406 L 69.4375 245.28125 Z M 67.511719 213.207031 " clip-rule="nonzero"/></clipPath><clipPath id="d77749784f"><path d="M 298.503906 199.347656 C 309.78125 198.667969 319.359375 205.300781 319.890625 214.15625 C 320.421875 223.015625 311.707031 230.746094 300.425781 231.421875 L 89.859375 244.058594 C 78.582031 244.734375 69.003906 238.101562 68.472656 229.246094 C 67.941406 220.386719 76.65625 212.660156 87.9375 211.980469 Z M 298.503906 199.347656 " clip-rule="nonzero"/></clipPath><clipPath id="d58d44f866"><path d="M 68 199 L 320 199 L 320 245 L 68 245 Z M 68 199 " clip-rule="nonzero"/></clipPath><clipPath id="45de6f1d25"><path d="M 67.511719 213.207031 L 318.648438 198.136719 L 320.550781 229.828125 L 69.414062 244.898438 Z M 67.511719 213.207031 " clip-rule="nonzero"/></clipPath><clipPath id="a232adb7e1"><path d="M 67.515625 213.207031 L 318.980469 198.117188 L 320.96875 231.304688 L 69.507812 246.394531 Z M 67.515625 213.207031 " clip-rule="nonzero"/></clipPath><clipPath id="c5aa45e78b"><path d="M 298.492188 199.347656 C 309.773438 198.671875 319.347656 205.300781 319.878906 214.15625 C 320.410156 223.015625 311.695312 230.742188 300.417969 231.421875 L 89.863281 244.054688 C 78.582031 244.730469 69.007812 238.101562 68.476562 229.242188 C 67.945312 220.386719 76.660156 212.660156 87.9375 211.980469 Z M 298.492188 199.347656 " clip-rule="nonzero"/></clipPath></defs><rect x="-37.5" width="450" fill="#ffffff" y="-37.499999" height="449.999989" fill-opacity="1"/><rect x="-37.5" fill="url(#3878a46f96)" width="450" y="-37.499999" height="449.999989"/><path stroke-linecap="butt" transform="matrix(0.228659, 0, 0, 0.228659, 48.526612, 122.99387)" fill="none" stroke-linejoin="miter" d="M 149.12362 244.865148 C 154.778204 244.677231 159.322371 245.941398 162.756121 248.674731 C 166.206954 251.390981 168.461954 254.910148 169.504037 259.215148 C 170.614454 263.537231 170.614454 267.961815 169.504037 272.505982 C 168.461954 276.998898 166.206954 280.825565 162.756121 283.985982 C 159.322371 287.095148 154.778204 288.752232 149.12362 288.940149 C 130.502787 289.708899 111.81362 290.545982 93.05612 291.451399 C 74.349869 292.322649 55.694869 293.159732 37.074035 293.962649 C 31.573202 294.150565 26.806952 292.442232 22.792368 288.803482 C 18.760702 285.164732 16.164035 280.705982 14.968202 275.444315 C 13.806535 270.131398 14.814452 265.228481 17.974868 260.735565 C 26.396952 248.572231 35.519452 237.058064 45.325285 226.210148 C 55.131119 215.293897 65.193202 204.548481 75.477369 193.973897 C 85.761536 183.399314 95.601536 172.41473 104.980286 161.020146 C 90.100703 160.644313 75.306536 160.456396 60.614869 160.456396 C 54.926119 160.456396 50.347786 158.93598 46.896952 155.929313 C 43.514452 152.871396 41.259452 149.181396 40.149035 144.876396 C 39.106952 140.571396 39.106952 136.215146 40.149035 131.807646 C 41.259452 127.400146 43.514452 123.744313 46.896952 120.823063 C 50.347786 117.867646 54.926119 116.381396 60.614869 116.381396 C 89.62237 116.381396 118.52737 117.457646 147.32987 119.610146 C 152.642787 119.985979 157.306537 121.848063 161.321121 125.213479 C 165.352787 128.510563 167.983621 132.678896 169.213621 137.701396 C 170.511954 142.672646 169.572371 147.626813 166.429037 152.546813 C 154.897787 170.36473 141.760704 186.76473 127.017787 201.798064 C 112.32612 216.780147 98.010286 232.120981 84.087369 247.803481 C 94.90112 247.188481 105.749036 246.641815 116.614037 246.163481 C 127.461953 245.685148 138.30987 245.240981 149.12362 244.865148 Z M 335.776123 121.335563 C 340.508207 128.988896 343.736957 137.581813 345.462374 147.09723 C 347.23904 156.57848 348.024874 166.16223 347.836957 175.882647 C 347.64904 185.603064 346.88029 194.674314 345.530707 203.096397 C 343.583207 216.011397 339.55154 228.260148 333.469873 239.842648 C 327.40529 251.425148 319.25654 261.418898 309.074873 269.840982 C 299.269039 277.887232 287.874456 283.763898 274.908206 287.505148 C 261.976122 291.195149 249.351539 291.075565 237.000289 287.146398 C 228.766122 284.618065 221.608205 280.398482 215.543622 274.504732 C 209.461955 268.628065 204.371121 261.931398 200.254038 254.414731 C 196.136955 246.846815 193.096121 239.142231 191.131538 231.300981 C 188.791121 222.690981 187.424454 212.748481 187.048621 201.507647 C 186.655704 190.215564 187.441538 178.684313 189.406121 166.913897 C 191.370704 155.14348 194.599455 144.158896 199.109455 133.960146 C 203.602371 123.761396 209.684038 115.339312 217.337372 108.693896 C 225.178622 100.647646 234.591538 94.993062 245.541955 91.678895 C 256.509455 88.330562 267.767372 87.203062 279.349873 88.313479 C 290.932373 89.355562 301.694873 92.686812 311.654456 98.290145 C 321.66529 103.893479 329.694457 111.563896 335.776123 121.335563 Z M 282.288206 235.742648 C 288.950706 229.473064 293.870706 222.178481 297.082373 213.858897 C 300.34529 205.488064 302.34404 196.741397 303.11279 187.653064 C 303.93279 178.56473 303.761956 169.681397 302.617373 161.020146 C 301.42154 152.410146 298.021956 145.371813 292.418623 139.922229 C 286.815289 134.421396 279.418206 131.756396 270.244456 131.961396 C 265.119456 131.961396 260.165289 133.225563 255.381955 135.753896 C 250.598622 138.299313 246.618205 141.61348 243.457789 145.730563 C 239.972789 150.667646 237.427372 156.544313 235.855705 163.39473 C 234.266955 170.245147 233.105288 176.600147 232.336538 182.493897 C 230.559872 195.648064 231.243205 208.597231 234.352372 221.324314 C 235.343205 225.048481 236.658622 228.789731 238.298622 232.513898 C 239.972789 236.203898 242.381539 239.244731 245.541955 241.636398 C 250.615705 245.326398 256.424039 246.641815 262.984039 245.582648 C 269.595289 244.489314 275.335289 241.875564 280.221123 237.758481 C 280.836123 237.177648 281.536539 236.511398 282.288206 235.742648 Z M 569.271127 196.34848 C 569.459044 212.987647 568.82696 229.558481 567.34071 246.009731 C 565.85446 262.478065 564.351127 278.946398 562.813627 295.397649 C 562.198627 301.103482 560.251127 305.596399 557.005294 308.893482 C 553.793627 312.241816 549.932793 314.496816 545.439877 315.641399 C 540.94696 316.837232 536.522377 316.837232 532.166126 315.641399 C 527.861126 314.496816 524.39321 312.241816 521.745293 308.893482 C 519.11446 305.596399 518.08946 301.103482 518.670293 295.397649 C 520.054043 282.482648 521.506126 269.157648 523.043626 255.422648 C 524.632376 241.687648 525.657376 227.969731 526.13571 214.285981 C 526.665293 200.55098 525.742793 187.22598 523.402376 174.31098 C 523.026543 171.919313 522.377376 169.59598 521.47196 167.34098 C 520.60071 165.08598 520.071126 162.796813 519.88321 160.456396 C 517.73071 162.796813 515.32196 165.256813 512.639876 167.836397 C 510.009043 170.381813 507.993209 172.72223 506.609459 174.87473 C 502.116543 181.53723 498.631543 188.541397 496.205709 195.904314 C 493.762793 203.233064 491.849459 210.818064 490.448626 218.659314 C 489.696959 223.596397 487.629876 227.320564 484.281542 229.865981 C 480.933209 232.394314 477.106542 233.863481 472.801542 234.239314 C 468.496542 234.632231 464.276959 234.051398 460.159875 232.513898 C 456.042792 230.942231 452.728625 228.499314 450.183209 225.202231 C 447.654875 221.853897 446.664042 217.702647 447.244875 212.782647 C 447.620708 207.520981 447.962375 202.225147 448.252792 196.91223 C 448.543209 191.599314 448.577375 186.218064 448.389459 180.76848 C 448.389459 178.991813 448.440709 176.497647 448.543209 173.303063 C 448.628625 170.040147 448.543209 166.913897 448.252792 163.890147 C 447.962375 160.83223 447.125292 158.508896 445.741542 156.93723 C 445.348625 156.356396 445.263208 155.86098 445.451125 155.433896 C 444.870292 155.673063 444.682375 155.673063 444.870292 155.433896 C 443.110708 156.048896 441.385292 157.842646 439.711125 160.815146 C 438.071125 163.736397 436.858208 165.769313 436.038208 166.913897 C 433.885708 170.450147 431.972375 174.140147 430.298208 177.966813 C 428.675292 181.79348 427.171958 185.671397 425.788208 189.600564 C 419.313625 207.008481 415.111125 225.031397 413.146541 243.652231 C 411.181958 262.255981 409.610291 280.774315 408.414458 299.207232 C 408.021541 304.895982 406.261958 309.474315 403.101541 312.908066 C 399.992374 316.358899 396.234041 318.613899 391.826541 319.655982 C 387.419041 320.766399 383.045707 320.766399 378.689457 319.655982 C 374.384457 318.613899 370.814041 316.358899 367.995291 312.908066 C 365.176541 309.474315 363.946541 304.895982 364.339457 299.207232 C 365.296124 283.934732 366.457791 268.576815 367.858624 253.116398 C 369.242374 237.621814 371.582791 222.298064 374.879874 207.179314 C 376.844457 197.98848 379.441124 188.40473 382.635707 178.393897 C 385.898624 168.400147 389.913208 158.748063 394.696541 149.471813 C 399.531124 140.144313 405.373624 132.149313 412.206958 125.486813 C 418.715708 119.029312 426.334875 114.724312 435.047375 112.571812 C 443.742792 110.368062 452.267375 110.555979 460.586959 113.152646 C 468.923625 115.680979 475.842376 121.062229 481.343209 129.296396 C 481.531126 129.672229 481.821542 130.184729 482.197376 130.799729 C 482.590292 131.380563 482.897792 131.961396 483.136959 132.525146 C 488.774459 125.691813 494.975709 120.259313 501.723626 116.227646 C 508.522793 112.213062 515.52696 110.436396 522.75321 110.914729 C 530.03071 111.393062 537.496127 114.963479 545.14946 121.608896 C 551.999877 127.502646 557.073627 134.677646 560.37071 143.15098 C 563.719044 151.573063 565.991127 160.456396 567.18696 169.783897 C 568.382794 179.060147 569.08321 187.926397 569.271127 196.34848 Z M 723.345713 172.51723 C 723.909463 191.94098 724.387796 211.467231 724.780713 231.078898 C 725.156546 250.656398 725.651963 270.233898 726.284046 289.794315 C 726.471963 295.500149 725.088213 300.044315 722.115713 303.443899 C 719.194463 306.877649 715.589879 309.166815 711.284879 310.260149 C 706.979879 311.353482 702.589463 311.353482 698.147796 310.260149 C 693.740296 309.166815 689.999046 306.877649 686.941129 303.443899 C 683.934462 300.044315 682.328629 295.500149 682.140712 289.794315 C 681.935712 283.917648 681.799046 278.109315 681.696546 272.352232 C 681.611129 266.560981 681.457379 260.735565 681.269462 254.841815 L 637.194461 253.048065 C 635.622795 260.513481 634.136545 267.927648 632.752795 275.307648 C 631.369045 282.619315 630.002378 290.016399 628.652795 297.481815 C 627.644878 303.170565 625.424045 307.287649 621.973211 309.833065 C 618.590711 312.361399 614.627378 313.591399 610.134461 313.488899 C 605.641544 313.386399 601.387794 312.224732 597.356128 309.969732 C 593.341544 307.731815 590.181127 304.537232 587.891961 300.420149 C 585.636961 296.303065 585.021961 291.400149 586.012794 285.711398 C 589.566127 266.526815 593.529461 247.530148 597.936961 228.721398 C 602.344461 209.861397 608.562794 191.513897 616.591961 173.661813 C 620.521128 164.846813 625.526545 155.34848 631.608211 145.166813 C 637.672795 134.968063 644.574462 125.606396 652.279045 117.098896 C 660.017795 108.574312 668.610712 102.355979 678.040712 98.426812 C 686.855712 94.702645 693.996546 94.002229 699.514462 96.342645 C 705.015296 98.700146 709.320296 102.902646 712.429463 108.984312 C 715.589879 115.065979 717.879046 122.070146 719.314046 130.013896 C 720.800296 137.957646 721.791129 145.76473 722.269463 153.418063 C 722.781963 161.071396 723.140713 167.44348 723.345713 172.51723 Z M 649.255295 209.553897 C 654.516962 209.741814 659.693212 209.929731 664.766962 210.117647 C 669.891962 210.322647 674.999879 210.527647 680.124879 210.766814 C 679.936962 204.258064 679.766129 197.817647 679.629462 191.462647 C 679.526962 185.090564 679.390295 178.786813 679.185295 172.51723 C 678.997379 169.971813 678.911962 167.28973 678.911962 164.47098 C 678.911962 161.60098 678.911962 158.696813 678.911962 155.792646 C 675.597795 159.65348 672.761962 163.377647 670.370295 166.913897 C 666.492379 172.790563 662.921962 178.92348 659.659045 185.295564 C 656.413212 191.650564 653.526128 198.09098 650.980712 204.599731 C 650.792795 205.368481 650.553628 206.205564 650.263212 207.110981 C 649.972795 207.965147 649.648212 208.785147 649.255295 209.553897 Z M 861.532798 178.393897 C 874.652799 178.20598 884.714882 181.33223 891.753215 187.806814 C 898.842799 194.264314 902.088632 204.258064 901.524882 217.805147 C 901.080716 229.575564 898.074049 240.799314 892.470715 251.476398 C 886.918632 262.136398 879.333632 270.797648 869.715715 277.460148 C 859.141132 284.925565 847.626965 288.837648 835.190298 289.230565 C 822.753631 289.606399 810.556131 288.051815 798.580714 284.566815 C 784.076964 280.449732 772.511547 274.026398 763.833213 265.330981 C 755.223213 256.567231 749.295297 246.334314 746.03238 234.598064 C 742.837796 222.827647 741.88113 210.476397 743.16238 197.561397 C 744.460713 184.595147 747.689463 171.74848 752.865713 159.021396 C 758.07613 146.243063 764.806963 134.472646 773.024047 123.693063 C 781.258214 112.930562 790.705297 103.893479 801.382381 96.564729 C 812.059464 89.201812 823.607798 84.435562 836.061548 82.283062 C 848.498215 80.130562 861.293632 81.394729 874.464882 86.075562 C 879.914465 87.852229 883.809465 90.756395 886.149882 94.770979 C 888.558632 98.785562 889.703215 103.090562 889.600715 107.685979 C 889.515299 112.281396 888.387799 116.500979 886.235299 120.327646 C 884.082799 124.154313 880.990715 126.955979 876.976132 128.715563 C 872.944465 130.492229 868.280715 130.389729 862.967798 128.442229 C 853.537798 125.281813 844.483631 125.333063 835.771131 128.578896 C 827.058631 131.790563 819.114881 137.223063 811.939881 144.876396 C 804.799047 152.52973 798.973631 161.208063 794.412381 170.92848 C 789.919464 180.597647 787.186131 190.386397 786.229464 200.29473 C 785.272797 210.203064 786.639464 218.983897 790.329464 226.637231 C 792.481964 231.130148 795.949881 234.956814 800.733214 238.117231 C 805.567797 241.226398 810.983214 243.430148 816.962381 244.728481 C 822.941548 245.958481 828.715714 246.163481 834.267798 245.292231 C 839.854048 244.386814 844.517798 242.097648 848.259048 238.407648 C 851.026548 235.435148 853.281548 231.898898 855.006965 227.781814 C 855.246132 227.200981 855.416965 226.483481 855.502382 225.629314 C 855.604882 224.723897 855.741548 223.767231 855.929465 222.759314 C 855.741548 222.759314 855.485298 222.759314 855.143632 222.759314 C 854.853215 222.759314 854.614048 222.759314 854.426132 222.759314 C 853.657382 222.759314 852.922798 222.759314 852.205298 222.759314 C 851.539048 222.759314 850.821548 222.759314 850.052798 222.759314 C 846.704465 226.295564 842.365298 228.516398 837.052381 229.438898 C 831.790715 230.293064 826.648631 229.592648 821.626131 227.354731 C 816.654881 225.099731 813.084464 220.931397 810.931964 214.866814 C 808.010714 206.444731 807.908214 199.78223 810.641548 194.91348 C 813.374881 189.976397 817.731131 186.388897 823.710298 184.133897 C 829.689465 181.89598 836.146965 180.426813 843.082798 179.760563 C 850.069881 179.043063 856.219882 178.581813 861.532798 178.393897 Z M 1032.895718 206.034731 C 1038.584468 205.641814 1043.094468 206.769314 1046.391551 209.400147 C 1049.739885 212.030981 1052.011968 215.533064 1053.207801 219.889314 C 1054.403635 224.194314 1054.403635 228.601814 1053.207801 233.094731 C 1052.011968 237.587648 1049.688635 241.465564 1046.254885 244.728481 C 1042.855301 247.923065 1038.396551 249.716815 1032.895718 250.109731 C 1018.016134 251.305565 1003.375717 253.235981 988.957384 255.918065 C 974.556133 258.548898 960.206133 261.931398 945.8903 266.048481 C 941.773216 267.193065 937.451133 266.953898 932.906966 265.330981 C 928.396966 263.656815 924.689883 260.991815 921.768633 257.353065 C 918.864466 253.714315 917.583216 249.460565 917.976133 244.574731 C 920.316549 221.614731 922.622799 198.65473 924.860716 175.74598 C 927.115716 152.820146 929.319466 129.894313 931.471966 106.968479 C 932.086966 101.467646 934.051549 97.025979 937.348633 93.626395 C 940.696966 90.175562 944.626133 87.920562 949.11905 86.878479 C 953.62905 85.768062 957.9853 85.768062 962.1878 86.878479 C 966.407383 87.920562 969.82405 90.175562 972.454883 93.626395 C 975.136967 97.025979 976.196133 101.467646 975.6153 106.968479 C 973.838633 125.213479 972.07905 143.390146 970.302383 161.532646 C 968.525717 179.623897 966.766133 197.68098 964.989467 215.720981 C 987.14655 211.040147 1009.781967 207.794314 1032.895718 206.034731 Z M 1178.462803 238.988481 C 1184.151553 239.176398 1188.69572 240.850564 1192.095304 244.010981 C 1195.546137 247.120148 1197.784054 250.878481 1198.84322 255.268898 C 1199.936554 259.676398 1199.936554 264.032648 1198.84322 268.337648 C 1197.784054 272.642648 1195.546137 276.230148 1192.095304 279.100148 C 1188.69572 281.935982 1184.151553 283.251398 1178.462803 283.046398 C 1165.154886 282.482648 1151.829886 282.550982 1138.470719 283.268482 C 1125.128636 283.934732 1111.803636 285.352648 1098.495719 287.505148 C 1094.378635 288.085982 1090.039469 287.624732 1085.495302 286.138482 C 1081.002385 284.652232 1077.244052 282.260565 1074.237385 278.963482 C 1071.213635 275.615148 1070.086135 271.310148 1070.854885 266.048481 C 1074.203218 238.954314 1077.859052 211.894314 1081.839468 184.851397 C 1085.854052 157.825563 1090.244469 130.782646 1094.976552 103.739729 C 1095.540302 100.391396 1096.719052 97.538479 1098.495719 95.198062 C 1100.067385 92.430562 1102.322385 90.124312 1105.243636 88.313479 C 1108.199052 86.451395 1111.837802 85.409312 1116.142802 85.221395 C 1137.309053 84.606395 1158.45822 84.982229 1179.607387 86.365979 C 1185.296137 86.758895 1189.87447 88.569729 1193.30822 91.832645 C 1196.759054 95.027229 1199.014054 98.853896 1200.056137 103.312646 C 1201.166554 107.720146 1201.166554 112.076396 1200.056137 116.381396 C 1199.014054 120.686396 1196.759054 124.222646 1193.30822 127.007229 C 1189.87447 129.723479 1185.296137 130.868063 1179.607387 130.440979 C 1165.103636 129.484313 1150.326553 129.005979 1135.241969 129.005979 C 1134.234053 134.711813 1133.226136 140.400563 1132.235303 146.089313 C 1131.278636 151.743896 1130.407386 157.415563 1129.638636 163.104313 C 1137.684886 163.29223 1145.440719 163.770563 1152.906136 164.539313 C 1158.782803 165.171397 1163.924886 167.39223 1168.332387 171.218897 C 1172.739887 174.994313 1174.943637 180.136397 1174.943637 186.645147 C 1174.943637 190.335147 1173.918637 193.956814 1171.851553 197.493064 C 1169.801553 201.029314 1167.085303 203.88223 1163.73697 206.034731 C 1160.439886 208.187231 1156.81822 209.075564 1152.906136 208.682647 C 1142.895303 207.674731 1132.901553 207.179314 1122.890719 207.179314 C 1122.139052 212.680147 1121.336136 218.283481 1120.533219 223.972231 C 1119.764469 229.678064 1118.978636 235.247231 1118.158636 240.696814 C 1128.169469 239.740148 1138.163219 239.125148 1148.15697 238.834731 C 1158.167803 238.544314 1168.264053 238.595564 1178.462803 238.988481 Z M 1178.462803 238.988481 " stroke="#ffffff" stroke-width="22.052099" stroke-opacity="1" stroke-miterlimit="4"/><g fill="#5271ff" fill-opacity="1"><g transform="translate(48.533757, 191.820088)"><g><path d="M 34.09375 -12.84375 C 35.382812 -12.882812 36.421875 -12.59375 37.203125 -11.96875 C 37.992188 -11.34375 38.507812 -10.535156 38.75 -9.546875 C 39 -8.554688 39 -7.546875 38.75 -6.515625 C 38.507812 -5.484375 37.992188 -4.609375 37.203125 -3.890625 C 36.421875 -3.179688 35.382812 -2.800781 34.09375 -2.75 C 29.832031 -2.570312 25.5625 -2.378906 21.28125 -2.171875 C 17 -1.972656 12.726562 -1.785156 8.46875 -1.609375 C 7.21875 -1.566406 6.128906 -1.957031 5.203125 -2.78125 C 4.285156 -3.613281 3.691406 -4.632812 3.421875 -5.84375 C 3.160156 -7.0625 3.382812 -8.1875 4.09375 -9.21875 C 6.03125 -11.988281 8.117188 -14.617188 10.359375 -17.109375 C 12.597656 -19.597656 14.894531 -22.050781 17.25 -24.46875 C 19.601562 -26.894531 21.851562 -29.40625 24 -32 C 20.59375 -32.09375 17.207031 -32.140625 13.84375 -32.140625 C 12.550781 -32.140625 11.507812 -32.484375 10.71875 -33.171875 C 9.9375 -33.867188 9.421875 -34.710938 9.171875 -35.703125 C 8.929688 -36.691406 8.929688 -37.6875 9.171875 -38.6875 C 9.421875 -39.695312 9.9375 -40.535156 10.71875 -41.203125 C 11.507812 -41.878906 12.550781 -42.21875 13.84375 -42.21875 C 20.476562 -42.21875 27.09375 -41.972656 33.6875 -41.484375 C 34.894531 -41.390625 35.957031 -40.960938 36.875 -40.203125 C 37.789062 -39.441406 38.394531 -38.488281 38.6875 -37.34375 C 38.976562 -36.207031 38.765625 -35.078125 38.046875 -33.953125 C 35.410156 -29.867188 32.410156 -26.113281 29.046875 -22.6875 C 25.679688 -19.257812 22.410156 -15.753906 19.234375 -12.171875 C 21.691406 -12.304688 24.164062 -12.425781 26.65625 -12.53125 C 29.144531 -12.644531 31.625 -12.75 34.09375 -12.84375 Z M 34.09375 -12.84375 "/></g></g></g><g fill="#5271ff" fill-opacity="1"><g transform="translate(87.930488, 191.820088)"><g><path d="M 37.375 -41.078125 C 38.457031 -39.328125 39.195312 -37.363281 39.59375 -35.1875 C 40 -33.019531 40.179688 -30.828125 40.140625 -28.609375 C 40.097656 -26.390625 39.914062 -24.316406 39.59375 -22.390625 C 39.144531 -19.429688 38.226562 -16.628906 36.84375 -13.984375 C 35.457031 -11.335938 33.597656 -9.050781 31.265625 -7.125 C 29.023438 -5.289062 26.425781 -3.945312 23.46875 -3.09375 C 20.507812 -2.238281 17.617188 -2.257812 14.796875 -3.15625 C 12.910156 -3.738281 11.269531 -4.703125 9.875 -6.046875 C 8.488281 -7.390625 7.320312 -8.925781 6.375 -10.65625 C 5.4375 -12.382812 4.742188 -14.144531 4.296875 -15.9375 C 3.765625 -17.90625 3.453125 -20.175781 3.359375 -22.75 C 3.273438 -25.332031 3.457031 -27.96875 3.90625 -30.65625 C 4.351562 -33.34375 5.09375 -35.851562 6.125 -38.1875 C 7.15625 -40.519531 8.539062 -42.445312 10.28125 -43.96875 C 12.070312 -45.8125 14.222656 -47.113281 16.734375 -47.875 C 19.242188 -48.632812 21.820312 -48.890625 24.46875 -48.640625 C 27.113281 -48.398438 29.578125 -47.640625 31.859375 -46.359375 C 34.148438 -45.078125 35.988281 -43.316406 37.375 -41.078125 Z M 25.140625 -14.921875 C 26.671875 -16.359375 27.804688 -18.03125 28.546875 -19.9375 C 29.285156 -21.84375 29.742188 -23.835938 29.921875 -25.921875 C 30.097656 -28.003906 30.050781 -30.03125 29.78125 -32 C 29.507812 -33.976562 28.734375 -35.59375 27.453125 -36.84375 C 26.179688 -38.101562 24.492188 -38.707031 22.390625 -38.65625 C 21.222656 -38.65625 20.085938 -38.363281 18.984375 -37.78125 C 17.890625 -37.195312 16.984375 -36.4375 16.265625 -35.5 C 15.460938 -34.375 14.878906 -33.023438 14.515625 -31.453125 C 14.160156 -29.890625 13.894531 -28.4375 13.71875 -27.09375 C 13.3125 -24.09375 13.46875 -21.132812 14.1875 -18.21875 C 14.40625 -17.363281 14.707031 -16.507812 15.09375 -15.65625 C 15.476562 -14.8125 16.023438 -14.117188 16.734375 -13.578125 C 17.898438 -12.722656 19.234375 -12.421875 20.734375 -12.671875 C 22.242188 -12.921875 23.554688 -13.515625 24.671875 -14.453125 C 24.804688 -14.585938 24.960938 -14.742188 25.140625 -14.921875 Z M 25.140625 -14.921875 "/></g></g></g><g fill="#5271ff" fill-opacity="1"><g transform="translate(128.47013, 191.820088)"><g><path d="M 50.21875 -23.9375 C 50.269531 -20.125 50.125 -16.332031 49.78125 -12.5625 C 49.445312 -8.800781 49.101562 -5.039062 48.75 -1.28125 C 48.613281 0.0195312 48.175781 1.050781 47.4375 1.8125 C 46.695312 2.570312 45.8125 3.085938 44.78125 3.359375 C 43.75 3.628906 42.738281 3.628906 41.75 3.359375 C 40.757812 3.085938 39.960938 2.570312 39.359375 1.8125 C 38.753906 1.050781 38.519531 0.0195312 38.65625 -1.28125 C 38.96875 -4.238281 39.300781 -7.285156 39.65625 -10.421875 C 40.019531 -13.554688 40.257812 -16.691406 40.375 -19.828125 C 40.488281 -22.972656 40.273438 -26.023438 39.734375 -28.984375 C 39.640625 -29.515625 39.492188 -30.035156 39.296875 -30.546875 C 39.097656 -31.066406 38.972656 -31.597656 38.921875 -32.140625 C 38.429688 -31.597656 37.882812 -31.035156 37.28125 -30.453125 C 36.675781 -29.867188 36.21875 -29.332031 35.90625 -28.84375 C 34.875 -27.320312 34.078125 -25.71875 33.515625 -24.03125 C 32.953125 -22.351562 32.515625 -20.617188 32.203125 -18.828125 C 32.023438 -17.703125 31.554688 -16.847656 30.796875 -16.265625 C 30.035156 -15.679688 29.160156 -15.34375 28.171875 -15.25 C 27.179688 -15.164062 26.21875 -15.300781 25.28125 -15.65625 C 24.34375 -16.019531 23.582031 -16.582031 23 -17.34375 C 22.414062 -18.101562 22.191406 -19.046875 22.328125 -20.171875 C 22.410156 -21.378906 22.484375 -22.585938 22.546875 -23.796875 C 22.617188 -25.003906 22.632812 -26.238281 22.59375 -27.5 C 22.59375 -27.90625 22.601562 -28.476562 22.625 -29.21875 C 22.644531 -29.957031 22.617188 -30.671875 22.546875 -31.359375 C 22.484375 -32.054688 22.296875 -32.582031 21.984375 -32.9375 C 21.890625 -33.070312 21.867188 -33.1875 21.921875 -33.28125 C 21.785156 -33.238281 21.738281 -33.238281 21.78125 -33.28125 C 21.375 -33.144531 20.976562 -32.738281 20.59375 -32.0625 C 20.21875 -31.394531 19.941406 -30.925781 19.765625 -30.65625 C 19.273438 -29.851562 18.835938 -29.015625 18.453125 -28.140625 C 18.078125 -27.265625 17.726562 -26.378906 17.40625 -25.484375 C 15.925781 -21.492188 14.960938 -17.367188 14.515625 -13.109375 C 14.066406 -8.847656 13.710938 -4.613281 13.453125 -0.40625 C 13.359375 0.894531 12.953125 1.9375 12.234375 2.71875 C 11.515625 3.507812 10.648438 4.023438 9.640625 4.265625 C 8.640625 4.515625 7.644531 4.515625 6.65625 4.265625 C 5.664062 4.023438 4.847656 3.507812 4.203125 2.71875 C 3.554688 1.9375 3.273438 0.894531 3.359375 -0.40625 C 3.585938 -3.894531 3.859375 -7.410156 4.171875 -10.953125 C 4.484375 -14.492188 5.019531 -17.992188 5.78125 -21.453125 C 6.226562 -23.554688 6.820312 -25.75 7.5625 -28.03125 C 8.300781 -30.320312 9.21875 -32.53125 10.3125 -34.65625 C 11.414062 -36.789062 12.753906 -38.617188 14.328125 -40.140625 C 15.804688 -41.617188 17.539062 -42.601562 19.53125 -43.09375 C 21.53125 -43.59375 23.476562 -43.550781 25.375 -42.96875 C 27.28125 -42.382812 28.863281 -41.148438 30.125 -39.265625 C 30.164062 -39.171875 30.226562 -39.054688 30.3125 -38.921875 C 30.40625 -38.796875 30.476562 -38.664062 30.53125 -38.53125 C 31.820312 -40.09375 33.238281 -41.332031 34.78125 -42.25 C 36.332031 -43.175781 37.9375 -43.582031 39.59375 -43.46875 C 41.257812 -43.351562 42.960938 -42.535156 44.703125 -41.015625 C 46.273438 -39.671875 47.441406 -38.035156 48.203125 -36.109375 C 48.960938 -34.179688 49.476562 -32.148438 49.75 -30.015625 C 50.019531 -27.890625 50.175781 -25.863281 50.21875 -23.9375 Z M 50.21875 -23.9375 "/></g></g></g><g fill="#5271ff" fill-opacity="1"><g transform="translate(179.09429, 191.820088)"><g><path d="M 34.828125 -29.375 C 34.960938 -24.9375 35.070312 -20.476562 35.15625 -16 C 35.25 -11.519531 35.363281 -7.039062 35.5 -2.5625 C 35.539062 -1.257812 35.222656 -0.21875 34.546875 0.5625 C 33.878906 1.351562 33.050781 1.867188 32.0625 2.109375 C 31.082031 2.359375 30.085938 2.359375 29.078125 2.109375 C 28.066406 1.867188 27.210938 1.351562 26.515625 0.5625 C 25.828125 -0.21875 25.460938 -1.257812 25.421875 -2.5625 C 25.367188 -3.90625 25.332031 -5.234375 25.3125 -6.546875 C 25.289062 -7.867188 25.257812 -9.207031 25.21875 -10.5625 L 15.125 -10.953125 C 14.769531 -9.253906 14.4375 -7.5625 14.125 -5.875 C 13.8125 -4.195312 13.492188 -2.507812 13.171875 -0.8125 C 12.953125 0.488281 12.445312 1.429688 11.65625 2.015625 C 10.875 2.597656 9.96875 2.878906 8.9375 2.859375 C 7.90625 2.835938 6.929688 2.566406 6.015625 2.046875 C 5.097656 1.535156 4.378906 0.8125 3.859375 -0.125 C 3.347656 -1.070312 3.203125 -2.195312 3.421875 -3.5 C 4.234375 -7.882812 5.144531 -12.226562 6.15625 -16.53125 C 7.164062 -20.84375 8.585938 -25.035156 10.421875 -29.109375 C 11.316406 -31.128906 12.457031 -33.300781 13.84375 -35.625 C 15.238281 -37.957031 16.820312 -40.097656 18.59375 -42.046875 C 20.363281 -44.003906 22.320312 -45.429688 24.46875 -46.328125 C 26.488281 -47.179688 28.125 -47.335938 29.375 -46.796875 C 30.632812 -46.253906 31.625 -45.285156 32.34375 -43.890625 C 33.0625 -42.503906 33.585938 -40.90625 33.921875 -39.09375 C 34.253906 -37.28125 34.476562 -35.5 34.59375 -33.75 C 34.707031 -32 34.785156 -30.539062 34.828125 -29.375 Z M 17.890625 -20.90625 C 19.097656 -20.863281 20.285156 -20.816406 21.453125 -20.765625 C 22.617188 -20.722656 23.78125 -20.679688 24.9375 -20.640625 C 24.894531 -22.117188 24.863281 -23.585938 24.84375 -25.046875 C 24.820312 -26.503906 24.789062 -27.945312 24.75 -29.375 C 24.695312 -29.957031 24.671875 -30.570312 24.671875 -31.21875 C 24.671875 -31.875 24.671875 -32.539062 24.671875 -33.21875 C 23.910156 -32.320312 23.257812 -31.46875 22.71875 -30.65625 C 21.820312 -29.3125 21.003906 -27.910156 20.265625 -26.453125 C 19.523438 -24.992188 18.863281 -23.523438 18.28125 -22.046875 C 18.238281 -21.867188 18.179688 -21.675781 18.109375 -21.46875 C 18.046875 -21.269531 17.972656 -21.082031 17.890625 -20.90625 Z M 17.890625 -20.90625 "/></g></g></g><g fill="#5271ff" fill-opacity="1"><g transform="translate(214.995076, 191.820088)"><g><path d="M 30.53125 -28.03125 C 33.53125 -28.082031 35.835938 -27.367188 37.453125 -25.890625 C 39.066406 -24.410156 39.804688 -22.125 39.671875 -19.03125 C 39.578125 -16.34375 38.890625 -13.773438 37.609375 -11.328125 C 36.335938 -8.890625 34.601562 -6.90625 32.40625 -5.375 C 29.988281 -3.675781 27.351562 -2.78125 24.5 -2.6875 C 21.65625 -2.601562 18.867188 -2.960938 16.140625 -3.765625 C 12.816406 -4.703125 10.171875 -6.164062 8.203125 -8.15625 C 6.234375 -10.15625 4.878906 -12.5 4.140625 -15.1875 C 3.398438 -17.882812 3.175781 -20.710938 3.46875 -23.671875 C 3.757812 -26.628906 4.5 -29.5625 5.6875 -32.46875 C 6.875 -35.382812 8.40625 -38.070312 10.28125 -40.53125 C 12.164062 -43 14.328125 -45.070312 16.765625 -46.75 C 19.210938 -48.4375 21.859375 -49.523438 24.703125 -50.015625 C 27.554688 -50.515625 30.484375 -50.222656 33.484375 -49.140625 C 34.734375 -48.742188 35.628906 -48.082031 36.171875 -47.15625 C 36.710938 -46.238281 36.96875 -45.253906 36.9375 -44.203125 C 36.914062 -43.148438 36.660156 -42.1875 36.171875 -41.3125 C 35.679688 -40.4375 34.972656 -39.796875 34.046875 -39.390625 C 33.128906 -38.992188 32.066406 -39.019531 30.859375 -39.46875 C 28.710938 -40.1875 26.640625 -40.175781 24.640625 -39.4375 C 22.648438 -38.695312 20.832031 -37.453125 19.1875 -35.703125 C 17.550781 -33.953125 16.21875 -31.96875 15.1875 -29.75 C 14.164062 -27.53125 13.539062 -25.285156 13.3125 -23.015625 C 13.082031 -20.753906 13.394531 -18.753906 14.25 -17.015625 C 14.75 -15.984375 15.546875 -15.109375 16.640625 -14.390625 C 17.734375 -13.671875 18.960938 -13.164062 20.328125 -12.875 C 21.703125 -12.582031 23.023438 -12.535156 24.296875 -12.734375 C 25.578125 -12.941406 26.644531 -13.472656 27.5 -14.328125 C 28.125 -14.992188 28.640625 -15.796875 29.046875 -16.734375 C 29.085938 -16.867188 29.117188 -17.035156 29.140625 -17.234375 C 29.160156 -17.441406 29.195312 -17.660156 29.25 -17.890625 C 29.195312 -17.890625 29.140625 -17.890625 29.078125 -17.890625 C 29.015625 -17.890625 28.957031 -17.890625 28.90625 -17.890625 C 28.726562 -17.890625 28.5625 -17.890625 28.40625 -17.890625 C 28.25 -17.890625 28.082031 -17.890625 27.90625 -17.890625 C 27.144531 -17.078125 26.15625 -16.566406 24.9375 -16.359375 C 23.726562 -16.160156 22.550781 -16.316406 21.40625 -16.828125 C 20.269531 -17.347656 19.453125 -18.304688 18.953125 -19.703125 C 18.285156 -21.628906 18.265625 -23.148438 18.890625 -24.265625 C 19.515625 -25.390625 20.507812 -26.207031 21.875 -26.71875 C 23.25 -27.238281 24.726562 -27.578125 26.3125 -27.734375 C 27.90625 -27.890625 29.3125 -27.988281 30.53125 -28.03125 Z M 30.53125 -28.03125 "/></g></g></g><g fill="#5271ff" fill-opacity="1"><g transform="translate(255.064106, 191.820088)"><g><path d="M 29.65625 -21.71875 C 30.945312 -21.800781 31.972656 -21.539062 32.734375 -20.9375 C 33.503906 -20.332031 34.019531 -19.535156 34.28125 -18.546875 C 34.550781 -17.566406 34.550781 -16.5625 34.28125 -15.53125 C 34.019531 -14.5 33.492188 -13.613281 32.703125 -12.875 C 31.921875 -12.132812 30.90625 -11.71875 29.65625 -11.625 C 26.25 -11.363281 22.894531 -10.925781 19.59375 -10.3125 C 16.300781 -9.707031 13.019531 -8.9375 9.75 -8 C 8.8125 -7.726562 7.828125 -7.78125 6.796875 -8.15625 C 5.765625 -8.539062 4.910156 -9.148438 4.234375 -9.984375 C 3.566406 -10.816406 3.273438 -11.789062 3.359375 -12.90625 C 3.898438 -18.15625 4.425781 -23.398438 4.9375 -28.640625 C 5.457031 -33.890625 5.960938 -39.132812 6.453125 -44.375 C 6.585938 -45.625 7.035156 -46.640625 7.796875 -47.421875 C 8.554688 -48.210938 9.453125 -48.726562 10.484375 -48.96875 C 11.515625 -49.21875 12.507812 -49.21875 13.46875 -48.96875 C 14.4375 -48.726562 15.222656 -48.210938 15.828125 -47.421875 C 16.429688 -46.640625 16.671875 -45.625 16.546875 -44.375 C 16.140625 -40.207031 15.734375 -36.050781 15.328125 -31.90625 C 14.921875 -27.757812 14.519531 -23.625 14.125 -19.5 C 19.1875 -20.570312 24.363281 -21.3125 29.65625 -21.71875 Z M 29.65625 -21.71875 "/></g></g></g><g fill="#5271ff" fill-opacity="1"><g transform="translate(289.956416, 191.820088)"><g><path d="M 28.03125 -14.1875 C 29.332031 -14.144531 30.375 -13.765625 31.15625 -13.046875 C 31.945312 -12.328125 32.460938 -11.460938 32.703125 -10.453125 C 32.953125 -9.441406 32.953125 -8.441406 32.703125 -7.453125 C 32.460938 -6.472656 31.945312 -5.65625 31.15625 -5 C 30.375 -4.351562 29.332031 -4.050781 28.03125 -4.09375 C 24.988281 -4.226562 21.941406 -4.21875 18.890625 -4.0625 C 15.847656 -3.90625 12.800781 -3.582031 9.75 -3.09375 C 8.8125 -2.957031 7.828125 -3.054688 6.796875 -3.390625 C 5.765625 -3.734375 4.898438 -4.285156 4.203125 -5.046875 C 3.503906 -5.804688 3.242188 -6.789062 3.421875 -8 C 4.191406 -14.1875 5.035156 -20.367188 5.953125 -26.546875 C 6.867188 -32.734375 7.863281 -38.921875 8.9375 -45.109375 C 9.070312 -45.867188 9.34375 -46.519531 9.75 -47.0625 C 10.101562 -47.6875 10.613281 -48.210938 11.28125 -48.640625 C 11.957031 -49.066406 12.789062 -49.300781 13.78125 -49.34375 C 18.625 -49.476562 23.46875 -49.390625 28.3125 -49.078125 C 29.601562 -48.992188 30.640625 -48.582031 31.421875 -47.84375 C 32.210938 -47.101562 32.726562 -46.226562 32.96875 -45.21875 C 33.21875 -44.207031 33.21875 -43.207031 32.96875 -42.21875 C 32.726562 -41.238281 32.210938 -40.429688 31.421875 -39.796875 C 30.640625 -39.171875 29.601562 -38.90625 28.3125 -39 C 24.988281 -39.21875 21.601562 -39.328125 18.15625 -39.328125 C 17.925781 -38.023438 17.695312 -36.722656 17.46875 -35.421875 C 17.25 -34.128906 17.050781 -32.832031 16.875 -31.53125 C 18.707031 -31.488281 20.476562 -31.378906 22.1875 -31.203125 C 23.53125 -31.066406 24.707031 -30.5625 25.71875 -29.6875 C 26.726562 -28.8125 27.234375 -27.632812 27.234375 -26.15625 C 27.234375 -25.300781 26.992188 -24.46875 26.515625 -23.65625 C 26.046875 -22.851562 25.429688 -22.207031 24.671875 -21.71875 C 23.910156 -21.226562 23.082031 -21.023438 22.1875 -21.109375 C 19.90625 -21.335938 17.617188 -21.453125 15.328125 -21.453125 C 15.148438 -20.191406 14.96875 -18.910156 14.78125 -17.609375 C 14.601562 -16.316406 14.425781 -15.039062 14.25 -13.78125 C 16.539062 -14.007812 18.828125 -14.15625 21.109375 -14.21875 C 23.398438 -14.289062 25.707031 -14.28125 28.03125 -14.1875 Z M 28.03125 -14.1875 "/></g></g></g><g clip-path="url(#14652b66ac)"><g clip-path="url(#81a18e68b3)"><g clip-path="url(#d77749784f)"><path fill="#ff914d" d="M 67.511719 213.207031 L 318.972656 198.117188 L 320.898438 230.191406 L 69.4375 245.28125 Z M 67.511719 213.207031 " fill-opacity="1" fill-rule="nonzero"/></g></g></g><g clip-path="url(#d58d44f866)"><g clip-path="url(#45de6f1d25)"><g clip-path="url(#a232adb7e1)"><g clip-path="url(#c5aa45e78b)"><path stroke-linecap="butt" transform="matrix(0.792231, -0.0475405, 0.0475405, 0.792231, 67.515007, 213.207584)" fill="none" stroke-linejoin="miter" d="M 291.552726 0.000809558 C 305.792484 0.00230438 317.333943 9.062278 317.333751 20.240152 C 317.333264 31.422939 305.789197 40.483113 291.554058 40.486826 L 25.779905 40.484012 C 11.540148 40.482517 -0.00131132 31.422543 -0.000824681 20.239756 C -0.000632864 9.061882 11.543434 0.00170851 25.778573 -0.00200449 Z M 291.552726 0.000809558 " stroke="#ffffff" stroke-width="5.66996" stroke-opacity="1" stroke-miterlimit="4"/></g></g></g></g><g fill="#ffffff" fill-opacity="1"><g transform="translate(82.394331, 233.594566)"><g><path d="M 7.09375 -12.453125 L 7.234375 -10.046875 L 3.046875 -9.8125 L 3.1875 -7.421875 L 7.0625 -7.640625 L 7.203125 -5.234375 L 3.328125 -5.015625 L 3.609375 -0.21875 L 0.875 -0.046875 L 0.171875 -12.046875 Z M 7.09375 -12.453125 "/></g></g></g><g fill="#ffffff" fill-opacity="1"><g transform="translate(92.342924, 233.007736)"><g><path d="M 2.90625 -12.21875 L 3.609375 -0.21875 L 0.875 -0.046875 L 0.171875 -12.046875 Z M 2.90625 -12.21875 "/></g></g></g><g fill="#ffffff" fill-opacity="1"><g transform="translate(98.524477, 232.64311)"><g><path d="M 3.171875 -7.65625 L 3.609375 -0.21875 L 0.875 -0.046875 L 0.171875 -12.046875 L 2.90625 -12.21875 L 8.109375 -5.046875 L 8.140625 -5.046875 L 7.703125 -12.5 L 10.4375 -12.65625 L 11.140625 -0.65625 L 8.40625 -0.5 L 3.203125 -7.65625 Z M 3.171875 -7.65625 "/></g></g></g><g fill="#ffffff" fill-opacity="1"><g transform="translate(112.240111, 231.834076)"><g><path d="M 0.171875 -12.046875 L 3.65625 -12.25 C 5.3125 -12.351562 6.765625 -11.867188 8.015625 -10.796875 C 9.265625 -9.722656 9.9375 -8.328125 10.03125 -6.609375 C 10.132812 -4.890625 9.628906 -3.425781 8.515625 -2.21875 C 7.410156 -1.007812 6.023438 -0.351562 4.359375 -0.25 L 0.875 -0.046875 Z M 3.46875 -2.671875 L 3.890625 -2.6875 C 4.878906 -2.75 5.671875 -3.132812 6.265625 -3.84375 C 6.859375 -4.550781 7.128906 -5.410156 7.078125 -6.421875 C 7.023438 -7.441406 6.660156 -8.269531 5.984375 -8.90625 C 5.304688 -9.550781 4.46875 -9.84375 3.46875 -9.78125 L 3.046875 -9.765625 Z M 3.46875 -2.671875 "/></g></g></g><g fill="#ffffff" fill-opacity="1"><g transform="translate(124.675827, 231.10054)"><g/></g></g><g fill="#ffffff" fill-opacity="1"><g transform="translate(130.34832, 230.765941)"><g><path d="M 4.5625 -12.53125 C 5.21875 -12.570312 5.859375 -12.515625 6.484375 -12.359375 C 7.117188 -12.210938 7.59375 -12.050781 7.90625 -11.875 L 8.359375 -11.609375 L 7.375 -9.359375 C 7.289062 -9.410156 7.164062 -9.476562 7 -9.5625 C 6.84375 -9.65625 6.546875 -9.765625 6.109375 -9.890625 C 5.671875 -10.023438 5.265625 -10.082031 4.890625 -10.0625 C 4.441406 -10.03125 4.097656 -9.90625 3.859375 -9.6875 C 3.628906 -9.476562 3.523438 -9.210938 3.546875 -8.890625 C 3.554688 -8.722656 3.625 -8.570312 3.75 -8.4375 C 3.875 -8.3125 4.078125 -8.175781 4.359375 -8.03125 C 4.648438 -7.882812 4.90625 -7.765625 5.125 -7.671875 C 5.34375 -7.585938 5.679688 -7.46875 6.140625 -7.3125 C 6.941406 -7.019531 7.628906 -6.601562 8.203125 -6.0625 C 8.785156 -5.53125 9.097656 -4.910156 9.140625 -4.203125 C 9.179688 -3.515625 9.09375 -2.90625 8.875 -2.375 C 8.664062 -1.851562 8.351562 -1.429688 7.9375 -1.109375 C 7.519531 -0.796875 7.050781 -0.550781 6.53125 -0.375 C 6.019531 -0.207031 5.457031 -0.101562 4.84375 -0.0625 C 4.332031 -0.03125 3.820312 -0.0546875 3.3125 -0.140625 C 2.800781 -0.222656 2.367188 -0.332031 2.015625 -0.46875 C 1.671875 -0.601562 1.359375 -0.738281 1.078125 -0.875 C 0.796875 -1.019531 0.585938 -1.140625 0.453125 -1.234375 L 0.25 -1.390625 L 1.484375 -3.765625 C 1.609375 -3.679688 1.773438 -3.566406 1.984375 -3.421875 C 2.191406 -3.285156 2.5625 -3.101562 3.09375 -2.875 C 3.632812 -2.65625 4.097656 -2.554688 4.484375 -2.578125 C 5.640625 -2.648438 6.195312 -3.082031 6.15625 -3.875 C 6.144531 -4.039062 6.09375 -4.191406 6 -4.328125 C 5.90625 -4.460938 5.75 -4.59375 5.53125 -4.71875 C 5.320312 -4.84375 5.132812 -4.9375 4.96875 -5 C 4.8125 -5.070312 4.546875 -5.179688 4.171875 -5.328125 C 3.804688 -5.484375 3.53125 -5.597656 3.34375 -5.671875 C 2.59375 -5.992188 2.003906 -6.410156 1.578125 -6.921875 C 1.148438 -7.429688 0.921875 -8 0.890625 -8.625 C 0.828125 -9.695312 1.171875 -10.597656 1.921875 -11.328125 C 2.671875 -12.066406 3.550781 -12.46875 4.5625 -12.53125 Z M 4.5625 -12.53125 "/></g></g></g><g fill="#ffffff" fill-opacity="1"><g transform="translate(141.824094, 230.089028)"><g><path d="M -0.03125 -6.015625 C -0.132812 -7.753906 0.367188 -9.257812 1.484375 -10.53125 C 2.609375 -11.8125 4 -12.5 5.65625 -12.59375 C 7.332031 -12.695312 8.789062 -12.179688 10.03125 -11.046875 C 11.28125 -9.921875 11.957031 -8.484375 12.0625 -6.734375 C 12.164062 -4.984375 11.675781 -3.472656 10.59375 -2.203125 C 9.507812 -0.941406 8.109375 -0.257812 6.390625 -0.15625 C 4.640625 -0.0507812 3.15625 -0.554688 1.9375 -1.671875 C 0.726562 -2.796875 0.0703125 -4.242188 -0.03125 -6.015625 Z M 2.9375 -6.1875 C 2.976562 -5.550781 3.109375 -4.984375 3.328125 -4.484375 C 3.554688 -3.992188 3.921875 -3.582031 4.421875 -3.25 C 4.921875 -2.914062 5.523438 -2.769531 6.234375 -2.8125 C 7.253906 -2.875 8.003906 -3.265625 8.484375 -3.984375 C 8.960938 -4.710938 9.171875 -5.570312 9.109375 -6.5625 C 9.054688 -7.539062 8.742188 -8.363281 8.171875 -9.03125 C 7.597656 -9.707031 6.8125 -10.015625 5.8125 -9.953125 C 4.820312 -9.890625 4.082031 -9.488281 3.59375 -8.75 C 3.101562 -8.019531 2.882812 -7.164062 2.9375 -6.1875 Z M 2.9375 -6.1875 "/></g></g></g><g fill="#ffffff" fill-opacity="1"><g transform="translate(156.281502, 229.23624)"><g><path d="M 10.796875 -0.640625 L 9.796875 -7.71875 L 9.734375 -7.703125 L 7.6875 -0.53125 L 6.0625 -0.4375 L 3.1875 -7.328125 L 3.109375 -7.3125 L 2.96875 -0.171875 L 0.234375 -0.015625 L 0.609375 -12.078125 L 3.515625 -12.25 L 6.578125 -5.46875 L 8.828125 -12.5625 L 11.75 -12.734375 L 13.515625 -0.796875 Z M 10.796875 -0.640625 "/></g></g></g><g fill="#ffffff" fill-opacity="1"><g transform="translate(171.742487, 228.324255)"><g><path d="M 7.03125 -12.453125 L 7.171875 -10.046875 L 3.046875 -9.8125 L 3.1875 -7.421875 L 7.140625 -7.65625 L 7.28125 -5.25 L 3.328125 -5.015625 L 3.46875 -2.625 L 7.59375 -2.859375 L 7.734375 -0.453125 L 0.875 -0.046875 L 0.171875 -12.046875 Z M 7.03125 -12.453125 "/></g></g></g><g fill="#ffffff" fill-opacity="1"><g transform="translate(181.880163, 227.726271)"><g><path d="M -0.03125 -6.015625 C -0.132812 -7.753906 0.367188 -9.257812 1.484375 -10.53125 C 2.609375 -11.8125 4 -12.5 5.65625 -12.59375 C 7.332031 -12.695312 8.789062 -12.179688 10.03125 -11.046875 C 11.28125 -9.921875 11.957031 -8.484375 12.0625 -6.734375 C 12.164062 -4.984375 11.675781 -3.472656 10.59375 -2.203125 C 9.507812 -0.941406 8.109375 -0.257812 6.390625 -0.15625 C 4.640625 -0.0507812 3.15625 -0.554688 1.9375 -1.671875 C 0.726562 -2.796875 0.0703125 -4.242188 -0.03125 -6.015625 Z M 2.9375 -6.1875 C 2.976562 -5.550781 3.109375 -4.984375 3.328125 -4.484375 C 3.554688 -3.992188 3.921875 -3.582031 4.421875 -3.25 C 4.921875 -2.914062 5.523438 -2.769531 6.234375 -2.8125 C 7.253906 -2.875 8.003906 -3.265625 8.484375 -3.984375 C 8.960938 -4.710938 9.171875 -5.570312 9.109375 -6.5625 C 9.054688 -7.539062 8.742188 -8.363281 8.171875 -9.03125 C 7.597656 -9.707031 6.8125 -10.015625 5.8125 -9.953125 C 4.820312 -9.890625 4.082031 -9.488281 3.59375 -8.75 C 3.101562 -8.019531 2.882812 -7.164062 2.9375 -6.1875 Z M 2.9375 -6.1875 "/></g></g></g><g fill="#ffffff" fill-opacity="1"><g transform="translate(196.337571, 226.873483)"><g><path d="M 3.171875 -7.65625 L 3.609375 -0.21875 L 0.875 -0.046875 L 0.171875 -12.046875 L 2.90625 -12.21875 L 8.109375 -5.046875 L 8.140625 -5.046875 L 7.703125 -12.5 L 10.4375 -12.65625 L 11.140625 -0.65625 L 8.40625 -0.5 L 3.203125 -7.65625 Z M 3.171875 -7.65625 "/></g></g></g><g fill="#ffffff" fill-opacity="1"><g transform="translate(210.053205, 226.064449)"><g><path d="M 7.03125 -12.453125 L 7.171875 -10.046875 L 3.046875 -9.8125 L 3.1875 -7.421875 L 7.140625 -7.65625 L 7.28125 -5.25 L 3.328125 -5.015625 L 3.46875 -2.625 L 7.59375 -2.859375 L 7.734375 -0.453125 L 0.875 -0.046875 L 0.171875 -12.046875 Z M 7.03125 -12.453125 "/></g></g></g><g fill="#ffffff" fill-opacity="1"><g transform="translate(220.190873, 225.466466)"><g/></g></g><g fill="#ffffff" fill-opacity="1"><g transform="translate(225.863367, 225.131867)"><g><path d="M -0.453125 -9.59375 L -0.59375 -12 L 7.84375 -12.5 L 7.984375 -10.09375 L 5.125 -9.921875 L 5.6875 -0.328125 L 2.96875 -0.171875 L 2.40625 -9.765625 Z M -0.453125 -9.59375 "/></g></g></g><g fill="#ffffff" fill-opacity="1"><g transform="translate(236.233756, 224.520157)"><g><path d="M -0.03125 -6.015625 C -0.132812 -7.753906 0.367188 -9.257812 1.484375 -10.53125 C 2.609375 -11.8125 4 -12.5 5.65625 -12.59375 C 7.332031 -12.695312 8.789062 -12.179688 10.03125 -11.046875 C 11.28125 -9.921875 11.957031 -8.484375 12.0625 -6.734375 C 12.164062 -4.984375 11.675781 -3.472656 10.59375 -2.203125 C 9.507812 -0.941406 8.109375 -0.257812 6.390625 -0.15625 C 4.640625 -0.0507812 3.15625 -0.554688 1.9375 -1.671875 C 0.726562 -2.796875 0.0703125 -4.242188 -0.03125 -6.015625 Z M 2.9375 -6.1875 C 2.976562 -5.550781 3.109375 -4.984375 3.328125 -4.484375 C 3.554688 -3.992188 3.921875 -3.582031 4.421875 -3.25 C 4.921875 -2.914062 5.523438 -2.769531 6.234375 -2.8125 C 7.253906 -2.875 8.003906 -3.265625 8.484375 -3.984375 C 8.960938 -4.710938 9.171875 -5.570312 9.109375 -6.5625 C 9.054688 -7.539062 8.742188 -8.363281 8.171875 -9.03125 C 7.597656 -9.707031 6.8125 -10.015625 5.8125 -9.953125 C 4.820312 -9.890625 4.082031 -9.488281 3.59375 -8.75 C 3.101562 -8.019531 2.882812 -7.164062 2.9375 -6.1875 Z M 2.9375 -6.1875 "/></g></g></g><g fill="#ffffff" fill-opacity="1"><g transform="translate(250.691164, 223.667369)"><g/></g></g><g fill="#ffffff" fill-opacity="1"><g transform="translate(256.363657, 223.33277)"><g><path d="M -0.453125 -9.59375 L -0.59375 -12 L 7.84375 -12.5 L 7.984375 -10.09375 L 5.125 -9.921875 L 5.6875 -0.328125 L 2.96875 -0.171875 L 2.40625 -9.765625 Z M -0.453125 -9.59375 "/></g></g></g><g fill="#ffffff" fill-opacity="1"><g transform="translate(266.734046, 222.72106)"><g><path d="M 6.25 -12.40625 L 11.8125 -0.703125 L 8.875 -0.53125 L 7.84375 -2.875 L 3.28125 -2.609375 L 2.53125 -0.15625 L -0.40625 0.03125 L 3.734375 -12.265625 Z M 6.765625 -5.21875 L 5.21875 -8.625 L 5.1875 -8.609375 L 4.078125 -5.046875 Z M 6.765625 -5.21875 "/></g></g></g><g fill="#ffffff" fill-opacity="1"><g transform="translate(279.838811, 221.948059)"><g><path d="M 2.90625 -12.21875 L 3.46875 -2.625 L 7.59375 -2.859375 L 7.734375 -0.453125 L 0.875 -0.046875 L 0.171875 -12.046875 Z M 2.90625 -12.21875 "/></g></g></g><g fill="#ffffff" fill-opacity="1"><g transform="translate(289.758319, 221.362945)"><g><path d="M 11.796875 -0.703125 L 8.015625 -0.46875 L 3.3125 -5.296875 L 3.609375 -0.21875 L 0.875 -0.046875 L 0.171875 -12.046875 L 2.90625 -12.21875 L 3.1875 -7.3125 L 7.015625 -12.453125 L 10.328125 -12.65625 L 5.828125 -6.65625 Z M 11.796875 -0.703125 "/></g></g></g><g fill="#ffffff" fill-opacity="1"><g transform="translate(302.906719, 220.58737)"><g><path d="M 1.375 -4.03125 L 0.515625 -12.59375 L 3.09375 -12.734375 L 3.25 -4.140625 Z M 2.34375 -3.265625 C 2.8125 -3.285156 3.21875 -3.144531 3.5625 -2.84375 C 3.90625 -2.539062 4.09375 -2.15625 4.125 -1.6875 C 4.144531 -1.226562 4.003906 -0.828125 3.703125 -0.484375 C 3.398438 -0.140625 3.015625 0.0390625 2.546875 0.0625 C 2.085938 0.09375 1.6875 -0.0390625 1.34375 -0.34375 C 1 -0.644531 0.816406 -1.023438 0.796875 -1.484375 C 0.765625 -1.953125 0.898438 -2.359375 1.203125 -2.703125 C 1.503906 -3.046875 1.882812 -3.234375 2.34375 -3.265625 Z M 2.34375 -3.265625 "/></g></g></g></svg>